# xmcd
#
# Track frame offsets: 
#        150
#        22706
#        40176
#        56204
#        72308
#        87444
#        111371
#        136239
#        160754
#        177963
#        196155
#        228569
#        266588
#        286583
#        307009
#
# Disc length: 4152 seconds
#
# Revision: 0
# Processed by: cddbd v1.5.2PL0 Copyright (c) Steve Scherf et al.
# Submitted via: ExactAudioCopyFreeDBPlugin 1.0
#
DISCID=cc10360f
DTITLE=Briganti di Terra d'Otranto - Briganti di Terra d'Otranto
DYEAR=2011
DGENRE=Musica Salentina
TTITLE0=Essiti Cacciatori
TTITLE1=Mannaggia lo Sciroccu
TTITLE2=Na storiella
TTITLE3=Tarantella Salentina
TTITLE4=Core schiattusu
TTITLE5=Lu vecchiu
TTITLE6=Pizzica strumentale
TTITLE7=Lu rusciu te lu mare
TTITLE8=E lu sule calau calau
TTITLE9=Zumpa
TTITLE10=Aria caddhipulina
TTITLE11=Pizzica di San Vito
TTITLE12=Brignanti se more
TTITLE13=Pizzica di Carovigno
TTITLE14=Briganti...
EXTD=
EXTT0=
EXTT1=
EXTT2=
EXTT3=
EXTT4=
EXTT5=
EXTT6=
EXTT7=
EXTT8=
EXTT9=
EXTT10=
EXTT11=
EXTT12=
EXTT13=
EXTT14=
PLAYORDER=
